{"title":"Kick Ass 2 2013 HDCAM XviD TANGiNA","uid":8827158,"size":1342784680,"categoryP":"video","categoryS":"movies","magnet":"?xt=urn:btih:db28aded5a8f5ec7d4d4305121b586592b125e96&amp;dn=Kick+Ass+2+2013+HDCAM+XviD+TANGiNA&amp;tr=udp%3A%2F%2Ftracker.openbittorrent.com%3A80&amp;tr=udp%3A%2F%2Fopen.demonii.com%3A1337&amp;tr=udp%3A%2F%2Ftracker.coppersurfer.tk%3A6969&amp;tr=udp%3A%2F%2Fexodus.desync.com%3A6969","seeders":2,"leechers":0,"uploader":"TeX","files":4,"time":1376872601,"description":"[size=100][/size][img]http://s23.postimg.org/gbvo91h0b/Kick_Ass_2_2013_Movie_Poster.jpg[/img]\n\nGeneral\nComplete name : Kick.Ass.2.2013.HDCAM.XviD-TANGiNA\nFormat : AVI\nFormat/Info : Audio Video Interleave\nFile size : 1.24 GiB\nDuration : 1h 36mn\nOverall bit rate : 1 837 Kbps\nWriting application : VirtualDubMod 1.5.10.2 (build 2542/release)\nWriting library : VirtualDubMod build 2542/release\n\nVideo\nID : 0\nFormat : MPEG-4 Visual\nFormat profile : Advanced Simple@L5\nFormat settings, BVOP : 2\nFormat settings, QPel : No\nFormat settings, GMC : No warppoints\nFormat settings, Matrix : Default (H.263)\nCodec ID : XVID\nCodec ID/Hint : XviD\nDuration : 1h 36mn\nBit rate : 1 699 Kbps\nWidth : 720 pixels\nHeight : 400 pixels\nDisplay aspect ratio : 16:9\nFrame rate : 25.000 fps\nColor space : YUV\nChroma subsampling : 4:2:0\nBit depth : 8 bits\nScan type : Progressive\nCompression mode : Lossy\nBits/(Pixel*Frame) : 0.236\nStream size : 1.15 GiB (93%)\nWriting library : XviD 1.2.1 (UTC 2008-12-04)\n\nAudio\nID : 1\nFormat : MPEG Audio\nFormat version : Version 1\nFormat profile : Layer 3\nMode : Joint stereo\nMode extension : MS Stereo\nCodec ID : 55\nCodec ID/Hint : MP3\nDuration : 1h 36mn\nBit rate mode : Constant\nBit rate : 128 Kbps\nChannel(s) : 2 channels\nSampling rate : 44.1 KHz\nCompression mode : Lossy\nStream size : 88.4 MiB (7%)\nAlignment : Split accross interleaves\nInterleave, duration : 40 ms (1.00 video frame)\nInterleave, preload duration : 500 ms\nWriting library : LAME3.98\n\nSource : 1080P TROUBLEMAKER/Kick-ass 2 English Audio ONLY\n\n[img]http://s23.postimg.org/bw8nq1f8b/424242401.png[/img]\n\n[img]http://s23.postimg.org/71eyrrgwr/574544.png[/img]\n\n[img]http://s23.postimg.org/qur2kguaj/421477.png[/img]\n\n[img]http://s23.postimg.org/y0itmx3dn/144323.png[/img]\n\n[img]http://s23.postimg.org/wueto4f2z/14045.png[/img]","torrent":{"xt":"urn:btih:db28aded5a8f5ec7d4d4305121b586592b125e96","amp;dn":"Kick+Ass+2+2013+HDCAM+XviD+TANGiNA","amp;tr":["udp%3A%2F%2Ftracker.openbittorrent.com%3A80","udp%3A%2F%2Fopen.demonii.com%3A1337","udp%3A%2F%2Ftracker.coppersurfer.tk%3A6969","udp%3A%2F%2Fexodus.desync.com%3A6969"],"infoHash":"db28aded5a8f5ec7d4d4305121b586592b125e96","infoHashBuffer":{"type":"Buffer","data":[219,40,173,237,90,143,94,199,212,212,48,81,33,181,134,89,43,18,94,150]},"announce":[],"urlList":[]}}